<?xml version="1.0" standalone="no"?>
<!DOCTYPE svg PUBLIC "-//W3C//DTD SVG 20010904//EN"
 "http://www.w3.org/TR/2001/REC-SVG-20010904/DTD/svg10.dtd">
<svg version="1.0" xmlns="http://www.w3.org/2000/svg"
 width="700.000000pt" height="700.000000pt" viewBox="0 0 700.000000 700.000000"
 preserveAspectRatio="xMidYMid meet">
<metadata>
Created by potrace 1.11, written by Peter Selinger 2001-2013
</metadata>
<g transform="translate(0.000000,700.000000) scale(0.100000,-0.100000)"
fill="#000000" stroke="none">
<path d="M3449 6681 c-57 -29 -288 -149 -404 -211 -174 -93 -248 -132 -360
-190 -66 -35 -147 -78 -180 -95 -33 -18 -114 -60 -180 -95 -66 -34 -160 -84
-210 -110 -49 -26 -137 -72 -195 -103 -103 -54 -368 -193 -545 -287 -49 -26
-137 -72 -195 -102 -205 -108 -346 -182 -395 -209 l-50 -28 0 -291 0 -292
2710 0 c1491 1 2736 1 2768 1 l57 1 -2 291 -3 290 -50 28 c-50 27 -192 102
-380 201 -189 99 -310 163 -400 210 -257 136 -442 233 -550 290 -66 34 -151
79 -190 100 -38 21 -124 66 -190 100 -66 34 -156 82 -200 105 -44 23 -125 66
-180 95 -55 29 -131 69 -170 90 -38 21 -124 66 -190 100 -66 35 -152 80 -191
101 l-71 37 -54 -27z"/>
<path d="M975 4220 l-30 -5 0 -1735 c-1 -1370 2 -1736 12 -1740 7 -3 110 -5
230 -4 l218 0 5 349 5 349 2070 1 c1139 0 2078 -1 2088 -3 16 -4 17 -29 17
-348 0 -189 3 -344 8 -345 21 -3 439 -4 447 -2 12 4 13 2174 1 2233 -4 19 -16
68 -26 108 -93 341 -375 596 -740 668 -19 3 -479 8 -1022 9 l-988 2 -1 -21 c0
-12 0 -378 0 -813 l-1 -793 -929 0 -929 0 0 1045 c0 988 -1 1045 -17 1046 -94
3 -395 3 -418 -1z"/>
<path d="M2268 3755 c-2 -1 -21 -5 -43 -8 -213 -31 -412 -179 -510 -382 -194
-399 24 -869 455 -981 85 -23 254 -23 336 -1 33 9 89 30 125 47 96 45 119 62
199 140 193 190 254 475 160 740 -24 67 -95 175 -155 236 -134 135 -281 200
-474 208 -49 2 -91 3 -93 1z"/>
</g>
</svg>
